<svg width="55" height="57" viewBox="0 0 55 57" fill="none" xmlns="http://www.w3.org/2000/svg">
<path d="M36.8637 21.0292C34.7468 18.9586 31.9033 17.7992 28.942 17.7992C25.9808 17.7992 23.1373 18.9586 21.0204 21.0292C19.9828 22.0657 19.1605 23.2972 18.6008 24.6527C18.0411 26.0083 17.755 27.4611 17.7589 28.9277C17.7629 30.3942 18.0569 31.8455 18.624 33.198C19.1911 34.5505 20.0201 35.7775 21.0632 36.8083C23.174 38.9041 26.0252 40.0843 28.9996 40.0937C31.9741 40.103 34.8326 38.9407 36.9566 36.8583C37.5008 36.3141 37.4555 35.4172 36.9095 34.8749L33.5296 31.5178C33.0266 31.0183 32.2885 31.1367 31.735 31.5796C31.0176 32.2932 30.0468 32.6938 29.0349 32.6938C28.023 32.6938 27.0522 32.2932 26.3348 31.5796C25.6228 30.8803 25.2176 29.927 25.2082 28.9291C25.1988 27.9312 25.5861 26.9705 26.2848 26.258C27.006 25.563 27.9707 25.1783 28.9722 25.1863C29.9737 25.1943 30.9322 25.5944 31.6421 26.3008L44.5763 39.1369C45.2668 39.8222 45.3718 40.912 44.753 41.6628C42.9512 43.8487 40.7266 45.6567 38.2064 46.9749C35.188 48.5538 31.8341 49.3836 28.4277 49.3944C24.8493 49.3956 21.3301 48.4808 18.2053 46.7371C15.0804 44.9934 12.4539 42.4789 10.5757 39.433C8.69757 36.387 7.63033 32.9111 7.4756 29.336C7.32087 25.7609 8.0838 22.2057 9.69176 19.0089C11.2997 15.8121 13.6992 13.0801 16.6617 11.0729C19.6242 9.06578 23.0512 7.85035 26.6164 7.54233C30.1815 7.23432 33.7662 7.84398 37.029 9.31326C39.8063 10.5639 42.2717 12.4018 44.2591 14.6933C44.8702 15.398 44.826 16.4367 44.2099 17.137C43.5976 17.8329 42.7757 18.7609 41.7444 19.9209C41.036 20.7177 41.0751 21.9308 41.8352 22.6784L44.2165 25.0207C45.0314 25.8223 46.3512 25.779 47.1118 24.9258L53.4818 17.7807C54.0058 17.1929 54.1418 16.3494 53.788 15.6459C51.6916 11.4767 48.5969 7.88176 44.7713 5.1861C40.5927 2.24162 35.697 0.479225 30.6004 0.0847303C25.5038 -0.309765 20.3951 0.678262 15.8132 2.94463C11.2312 5.211 7.34562 8.67174 4.56619 12.9619C1.78675 17.2521 0.216438 22.2128 0.0208136 27.3209C-0.174811 32.429 1.01151 37.4953 3.45468 41.9855C5.89785 46.4757 9.50734 50.2234 13.9026 52.8336C18.2978 55.4438 23.3159 56.8196 28.4277 56.8161C35.5708 56.8161 41.4781 54.5946 47.2569 49.673C50.2366 47.0483 52.6694 43.8679 54.422 40.3145C54.7872 39.574 54.6142 38.6889 54.0289 38.1065L36.8637 21.0292Z" fill="url(#paint0_linear_11_181)"/>
<defs>
<linearGradient id="paint0_linear_11_181" x1="53.1663" y1="30.0549" x2="-1.80061" y2="30.0549" gradientUnits="userSpaceOnUse">
<stop stop-color="#77BEF8"/>
<stop offset="1" stop-color="#0B111E" stop-opacity="0.97"/>
</linearGradient>
</defs>
</svg>
